# xmcd CD database file
#
# Track frame offsets:
#	187
#	31197
#	61615
#	89872
#	109300
#	121990
#	153507
#	177657
#	208180
#	232517
#
# Disc length: 3400 seconds
#
# Revision: 0
# Processed by: cddbd v1.5.2PL0 Copyright (c) Steve Scherf et al.
# Submitted via: CDex 1.70beta2
#
DISCID=820d460a
DTITLE=Paul Motian - Paul Motian On Broadway Vol 3
DYEAR=1900
DGENRE=Jazz
TTITLE0=How Deep Is The Ocean
TTITLE1=I Wish I Knew
TTITLE2=Just One Of Those Things
TTITLE3=Crazy She Calls Me
TTITLE4=Tico Tico
TTITLE5=Weaver Of Dreams
TTITLE6=The Way You Look Tonight
TTITLE7=Handfull Of Stars
TTITLE8=Pennies From Heaven
TTITLE9=Skylark
EXTD=
EXTT0=
EXTT1=
EXTT2=
EXTT3=
EXTT4=
EXTT5=
EXTT6=
EXTT7=
EXTT8=
EXTT9=
PLAYORDER=
